<?xml version="1.0" encoding="UTF-8" standalone="no"?>
<!-- Created with Inkscape (http://www.inkscape.org/) -->

<svg
   xmlns:dc="http://purl.org/dc/elements/1.1/"
   xmlns:cc="http://creativecommons.org/ns#"
   xmlns:rdf="http://www.w3.org/1999/02/22-rdf-syntax-ns#"
   xmlns:svg="http://www.w3.org/2000/svg"
   xmlns="http://www.w3.org/2000/svg"
   xmlns:sodipodi="http://sodipodi.sourceforge.net/DTD/sodipodi-0.dtd"
   xmlns:inkscape="http://www.inkscape.org/namespaces/inkscape"
   width="134.35732mm"
   height="44.629986mm"
   viewBox="0 0 134.35732 44.629985"
   version="1.1"
   id="svg8"
   inkscape:version="0.92.3 (2405546, 2018-03-11)"
   sodipodi:docname="logoJaveriana3.svg">
  <defs
     id="defs2">
    <clipPath
       id="clipPath887"
       clipPathUnits="userSpaceOnUse">
      <path
         inkscape:connector-curvature="0"
         id="path885"
         d="M 0,595.276 H 841.89 V 0 H 0 Z" />
    </clipPath>
    <clipPath
       id="clipPath905"
       clipPathUnits="userSpaceOnUse">
      <path
         inkscape:connector-curvature="0"
         id="path903"
         d="M 0,595.276 H 841.89 V 0 H 0 Z" />
    </clipPath>
    <clipPath
       id="clipPath949"
       clipPathUnits="userSpaceOnUse">
      <path
         inkscape:connector-curvature="0"
         id="path947"
         d="M 0,0 H 841.89 V 595.276 H 0 Z" />
    </clipPath>
    <clipPath
       id="clipPath965"
       clipPathUnits="userSpaceOnUse">
      <path
         inkscape:connector-curvature="0"
         id="path963"
         d="M 0,0 H 841.89 V 595.276 H 0 Z" />
    </clipPath>
    <clipPath
       id="clipPath993"
       clipPathUnits="userSpaceOnUse">
      <path
         inkscape:connector-curvature="0"
         id="path991"
         d="M 0,0 H 841.89 V 595.276 H 0 Z" />
    </clipPath>
    <clipPath
       id="clipPath1718"
       clipPathUnits="userSpaceOnUse">
      <path
         inkscape:connector-curvature="0"
         id="path1716"
         d="M 0,595.276 H 841.89 V 0 H 0 Z" />
    </clipPath>
    <clipPath
       id="clipPath1736"
       clipPathUnits="userSpaceOnUse">
      <path
         inkscape:connector-curvature="0"
         id="path1734"
         d="M 0,595.276 H 841.89 V 0 H 0 Z" />
    </clipPath>
    <clipPath
       id="clipPath1828"
       clipPathUnits="userSpaceOnUse">
      <path
         inkscape:connector-curvature="0"
         id="path1826"
         d="M 0,0 H 841.89 V 595.276 H 0 Z" />
    </clipPath>
  </defs>
  <sodipodi:namedview
     id="base"
     pagecolor="#ffffff"
     bordercolor="#666666"
     borderopacity="1.0"
     inkscape:pageopacity="0.0"
     inkscape:pageshadow="2"
     inkscape:zoom="0.7"
     inkscape:cx="705.4092"
     inkscape:cy="-346.52628"
     inkscape:document-units="mm"
     inkscape:current-layer="layer1"
     showgrid="false"
     fit-margin-top="0"
     fit-margin-left="0"
     fit-margin-right="0"
     fit-margin-bottom="0"
     inkscape:window-width="1920"
     inkscape:window-height="1025"
     inkscape:window-x="0"
     inkscape:window-y="27"
     inkscape:window-maximized="1" />
  <metadata
     id="metadata5">
    <rdf:RDF>
      <cc:Work
         rdf:about="">
        <dc:format>image/svg+xml</dc:format>
        <dc:type
           rdf:resource="http://purl.org/dc/dcmitype/StillImage" />
        <dc:title></dc:title>
      </cc:Work>
    </rdf:RDF>
  </metadata>
  <g
     inkscape:label="Layer 1"
     inkscape:groupmode="layer"
     id="layer1"
     transform="translate(-4.0775017,-18.01338)">
    <g
       id="g1822"
       transform="matrix(0.35277777,0,0,-0.35277777,-121.41049,167.57595)">
      <g
         id="g1824"
         clip-path="url(#clipPath1828)">
        <g
           id="g1830"
           transform="translate(391.0556,420.347)">
          <path
             d="m 0,0 c -0.43,0 -0.853,-0.15 -1.125,-0.349 -0.117,-0.118 -0.312,-0.541 -0.352,-1.484 -0.04,-0.8 -0.04,-5.664 -0.074,-10.092 0,-3.531 0.074,-6.639 0.074,-7.604 0.04,-2.489 0.315,-2.88 2.367,-3.458 0.742,-0.198 1.011,-0.433 1.011,-0.777 0,-0.314 -0.699,-0.468 -1.243,-0.468 -1.007,0 -2.565,0.154 -4.268,0.154 -1.125,0 -2.803,-0.154 -3.959,-0.154 -0.744,0 -1.205,0.191 -1.205,0.584 0,0.272 0.461,0.507 0.853,0.618 2.095,0.466 2.559,1.208 2.636,2.835 0.118,1.868 0.195,4.933 0.195,6.875 0,1.279 -0.037,9.588 -0.114,10.795 -0.041,1.4 -0.041,1.981 -2.21,2.293 -0.742,0.082 -1.125,0.349 -1.125,0.581 0,0.311 0.343,0.465 0.85,0.504 0.275,0.04 0.933,0.04 1.276,0.04 1.753,0 4.821,0.312 6.691,0.312 3.613,0 5.931,-0.894 7.371,-2.293 1.86,-1.786 2.253,-3.963 2.253,-5.28 0,-3.382 -1.515,-4.971 -2.639,-5.98 -1.014,-0.861 -2.915,-1.714 -4.506,-1.714 -0.427,0 -1.474,0.078 -2.099,0.278 C 0.232,-13.592 0,-13.357 0,-13.121 c 0,0.15 0.192,0.348 0.507,0.348 h 0.85 c 1.981,0 4.777,1.864 4.777,6.212 C 6.134,-3.104 3.569,0 0,0"
             style="fill:#2a57af;fill-opacity:1;fill-rule:nonzero;stroke:none"
             id="path1832"
             inkscape:connector-curvature="0" />
        </g>
        <g
           id="g1834"
           transform="translate(418.7771,404.0726)">
          <path
             d="m 0,0 c 0,-3.254 -1.938,-5.744 -3.375,-6.678 -1.594,-1.125 -3.229,-1.549 -4.972,-1.549 -1.79,0 -3.761,0.813 -5.202,2.018 -1.672,1.359 -2.88,3.961 -2.88,5.94 0,2.914 1.248,4.812 2.729,6.061 1.162,1.044 3.177,2.172 5.822,2.172 C -4.036,7.964 0,4.935 0,0 m -11.027,5.71 c -0.964,-0.929 -1.789,-2.87 -1.789,-5.049 0,-1.279 0.117,-2.525 0.466,-3.493 0.897,-2.833 3.035,-4.236 4.856,-4.236 0.429,0 1.248,0.241 2.219,1.212 0.97,1.044 1.665,3.411 1.665,5.161 0,1.94 -0.426,4.229 -1.826,5.946 -0.81,0.89 -2.133,1.511 -3.18,1.511 -0.776,0 -1.598,-0.393 -2.411,-1.052"
             style="fill:#2a57af;fill-opacity:1;fill-rule:nonzero;stroke:none"
             id="path1836"
             inkscape:connector-curvature="0" />
        </g>
        <g
           id="g1838"
           transform="translate(422.5475,410.8716)">
          <path
             d="m 0,0 c 0.702,0.235 2.179,0.777 2.72,1.131 0.426,0.272 0.85,0.461 1.044,0.461 0.152,0 0.353,-0.427 0.353,-0.584 0,-0.578 -0.121,-1.549 -0.121,-1.906 0,-0.191 0.235,-0.109 0.235,-0.109 1.554,1.084 3.495,2.138 5.164,2.138 1.904,0 2.992,-0.856 3.532,-1.482 0.9,-1.006 1.363,-2.794 1.363,-4.742 0,-0.773 0.078,-6.518 0.115,-7.057 0.074,-0.589 0.466,-1.09 1.44,-1.362 0.735,-0.197 0.964,-0.432 0.964,-0.661 0,-0.269 -0.535,-0.473 -1.122,-0.473 -0.93,0 -1.944,0.081 -3.028,0.081 -0.968,0 -2.253,-0.081 -2.76,-0.081 -0.43,0 -0.974,0.122 -0.974,0.473 0,0.272 0.433,0.507 0.94,0.661 0.887,0.345 1.122,0.697 1.205,1.978 0.077,1.28 0.077,5.98 0.077,7.108 0,1.24 -0.624,2.408 -1.057,2.757 C 9.673,-1.32 8.499,-0.93 7.643,-0.93 6.017,-0.93 5.047,-1.471 4.385,-2.054 4.231,-2.173 3.996,-2.676 3.996,-2.992 c -0.034,-0.503 0,-8.855 0.043,-9.314 0.04,-0.543 0.192,-0.861 1.406,-1.206 0.384,-0.114 0.693,-0.389 0.693,-0.624 0,-0.272 -0.43,-0.466 -1.011,-0.466 -0.504,0 -1.672,0.037 -2.488,0.037 -1.437,0 -2.639,-0.115 -3.297,-0.115 -0.584,0 -1.011,0.204 -1.011,0.544 0,0.269 0.389,0.47 0.816,0.581 1.273,0.388 1.468,0.782 1.595,2.176 0.114,1.168 0.231,4.509 0.231,8.431 0,0.426 -0.157,0.816 -0.973,1.514 -0.504,0.385 -0.658,0.536 -0.658,0.661 0,0.269 0.383,0.657 0.658,0.773"
             style="fill:#2a57af;fill-opacity:1;fill-rule:nonzero;stroke:none"
             id="path1840"
             inkscape:connector-curvature="0" />
        </g>
        <g
           id="g1842"
           transform="translate(450.8531,411.6489)">
          <path
             d="m 0,0 c 0.08,0 0.426,-0.193 0.467,-0.348 0,0.115 0.12,-1.01 0.12,-1.478 0,-0.385 -0.742,-0.467 -1.01,-0.467 h -4.16 c -0.152,0 -0.309,-0.196 -0.309,-0.271 -0.077,-1.013 -0.115,-6.287 -0.115,-8.233 0,-0.967 0.272,-1.478 0.696,-1.9 0.664,-0.584 1.477,-0.736 2.256,-0.736 0.463,0 1.285,0.224 1.863,0.583 0.35,0.188 0.464,0.225 0.618,0.225 0,0 0.195,-0.072 0.195,-0.421 0,-0.35 -0.269,-0.739 -0.541,-1.011 -1.047,-1.048 -2.441,-1.746 -4.197,-1.746 -1.594,0 -2.948,0.927 -3.495,1.786 -0.426,0.655 -0.504,1.434 -0.504,2.596 0,1.439 0.161,7.266 0.161,8.626 0,0.265 -0.708,0.547 -1.517,0.737 -0.309,0.116 -0.504,0.351 -0.504,0.508 0,0.145 0.074,0.309 0.235,0.422 1.474,1.128 2.713,2.017 3.297,2.761 0.467,0.504 0.733,0.853 0.893,0.853 0.189,0 0.582,-0.349 0.582,-0.469 V 0.156 c 0,-0.114 0.197,-0.309 0.349,-0.309 C -3.764,-0.153 -0.155,0 0,0"
             style="fill:#2a57af;fill-opacity:1;fill-rule:nonzero;stroke:none"
             id="path1844"
             inkscape:connector-curvature="0" />
        </g>
        <g
           id="g1846"
           transform="translate(454.2712,410.8346)">
          <path
             d="M 0,0 C 1.514,0.312 3.458,1.168 4.036,1.326 4.231,1.326 4.422,0.97 4.422,0.893 4.385,0.312 4.194,-4.818 4.194,-7.031 c 0,-1.979 0.037,-3.535 0.074,-4.895 0.037,-1.204 0.822,-1.317 1.796,-1.629 0.611,-0.198 0.843,-0.428 0.843,-0.658 0,-0.274 -0.497,-0.43 -0.964,-0.43 -0.272,0 -2.219,0.115 -3.038,0.115 -1.276,0 -2.713,-0.152 -3.406,-0.152 -0.587,0 -1.02,0.193 -1.02,0.467 0,0.23 0.276,0.423 0.94,0.584 0.89,0.272 1.437,0.732 1.554,1.123 0.115,0.543 0.158,2.95 0.158,4.428 0,0.237 0.037,5.043 -0.043,5.513 -0.037,0.272 -0.47,0.627 -1.555,1.397 -0.235,0.198 -0.346,0.352 -0.346,0.463 0,0.279 0.387,0.588 0.813,0.705 M 4.62,7.102 C 4.62,6.017 3.498,5.127 2.679,5.127 2.407,5.127 1.746,5.279 1.36,5.626 1.051,5.982 0.739,6.408 0.739,7.102 c 0,0.391 0.154,1.051 0.503,1.443 0.427,0.382 1.051,0.581 1.629,0.581 1.125,0 1.749,-1.284 1.749,-2.024"
             style="fill:#2a57af;fill-opacity:1;fill-rule:nonzero;stroke:none"
             id="path1848"
             inkscape:connector-curvature="0" />
        </g>
        <g
           id="g1850"
           transform="translate(472.4401,411.4959)">
          <path
             d="m 0,0 c 3.347,-0.04 4.16,0.269 4.895,0.507 0.39,0.111 0.894,0.225 1.206,0.225 0.269,0 0.151,-1.047 0.151,-3.299 0,-7.029 -0.04,-8.661 0.084,-10.252 0.071,-0.813 0.503,-1.002 1.625,-1.36 0.779,-0.272 0.856,-0.39 0.856,-0.658 0,-0.311 -0.467,-0.467 -0.933,-0.467 -0.85,0 -2.095,0.114 -3.063,0.114 -1.323,0 -2.488,-0.151 -3.344,-0.151 -0.426,0 -0.772,0.114 -0.772,0.467 0,0.23 0.231,0.383 0.85,0.658 0.967,0.395 1.356,0.743 1.403,1.397 0.111,2.447 0.154,8.699 0.154,10.368 0,0.234 -0.312,0.546 -0.473,0.58 -1.239,0.119 -4.499,0.157 -6.289,0 -0.08,0 -0.386,-0.224 -0.386,-0.506 0,-1.12 0,-7.757 0.114,-9.858 0.077,-1.238 0.235,-1.44 1.981,-1.981 0.624,-0.198 0.819,-0.383 0.819,-0.621 0,-0.195 -0.275,-0.467 -0.853,-0.467 -0.667,0 -2.41,0.114 -3.653,0.114 -1.356,0 -2.79,-0.191 -3.303,-0.191 -0.498,0 -0.773,0.233 -0.773,0.468 0,0.269 0.275,0.462 0.773,0.579 1.322,0.391 1.52,0.659 1.671,1.983 0.075,0.848 0.075,7.032 0.075,9.863 0,0.111 -0.189,0.467 -0.384,0.507 -0.543,0.076 -0.893,0.11 -1.403,0.151 -0.188,0 -0.343,0.276 -0.303,0.433 0.038,0.343 0.541,0.697 1.744,1.317 0.197,0.156 0.389,0.349 0.389,0.54 0,1.864 0.275,3.965 1.085,5.789 0.778,1.666 1.91,3.262 3.455,4.391 1.44,1.122 3.263,1.821 5.009,1.821 2.488,0 3.573,-1.009 4.117,-1.703 0.275,-0.359 0.349,-0.627 0.349,-0.977 0,-0.93 -1.511,-1.94 -2.012,-1.94 -0.238,0 -0.822,0.466 -1.514,1.168 -0.862,0.853 -2.068,1.474 -3.267,1.474 -0.97,0 -1.672,-0.312 -2.333,-1.094 -0.89,-1.045 -1.74,-3.724 -1.74,-8.969 0,-0.151 0.229,-0.383 0.501,-0.383 C -2.905,0 -0.306,0 0,0"
             style="fill:#2a57af;fill-opacity:1;fill-rule:nonzero;stroke:none"
             id="path1852"
             inkscape:connector-curvature="0" />
        </g>
        <g
           id="g1854"
           transform="translate(495.8164,411.0262)">
          <path
             d="m 0,0 c 0.392,-0.309 0.584,-0.927 0.584,-1.244 0,-0.623 -1.165,-1.587 -1.316,-1.587 -0.275,0 -0.934,0.266 -1.558,0.773 -1.242,0.896 -1.947,1.553 -3.257,1.553 -0.547,0 -1.632,-0.465 -2.256,-1.198 -1.008,-1.171 -1.595,-2.843 -1.595,-4.589 0,-2.29 0.896,-3.65 1.091,-3.882 0.89,-1.514 2.679,-2.485 4.741,-2.485 1.359,0 2.441,0.466 3.486,1.166 0.389,0.268 0.707,0.16 0.707,-0.041 0,-0.426 -0.235,-0.856 -0.547,-1.163 -1.322,-1.477 -3.572,-2.449 -5.668,-2.449 -2.525,0 -4.62,1.325 -5.785,3.107 -0.705,1.127 -1.245,2.913 -1.245,4.548 0,2.872 1.517,5.204 3.807,6.709 1.477,1.057 3.999,1.635 5.127,1.635 C -2.482,0.853 -0.732,0.545 0,0"
             style="fill:#2a57af;fill-opacity:1;fill-rule:nonzero;stroke:none"
             id="path1856"
             inkscape:connector-curvature="0" />
        </g>
        <g
           id="g1858"
           transform="translate(499.8958,410.8346)">
          <path
             d="M 0,0 C 1.514,0.312 3.452,1.168 4.039,1.326 4.234,1.326 4.426,0.97 4.426,0.893 4.385,0.312 4.197,-4.818 4.197,-7.031 c 0,-1.979 0.037,-3.535 0.077,-4.895 0.04,-1.204 0.813,-1.317 1.78,-1.629 0.625,-0.198 0.85,-0.428 0.85,-0.658 0,-0.274 -0.497,-0.43 -0.967,-0.43 -0.269,0 -2.213,0.115 -3.019,0.115 -1.286,0 -2.726,-0.152 -3.419,-0.152 -0.587,0 -1.013,0.193 -1.013,0.467 0,0.23 0.269,0.423 0.927,0.584 0.893,0.272 1.443,0.732 1.557,1.123 0.115,0.543 0.155,2.95 0.155,4.428 0,0.237 0.04,5.043 -0.04,5.513 -0.034,0.272 -0.464,0.627 -1.552,1.397 -0.234,0.198 -0.349,0.352 -0.349,0.463 0,0.279 0.39,0.588 0.816,0.705 M 4.617,7.102 C 4.617,6.017 3.495,5.127 2.676,5.127 2.411,5.127 1.749,5.279 1.354,5.626 1.051,5.982 0.739,6.408 0.739,7.102 c 0,0.391 0.154,1.051 0.5,1.443 0.43,0.382 1.045,0.581 1.638,0.581 1.122,0 1.74,-1.284 1.74,-2.024"
             style="fill:#2a57af;fill-opacity:1;fill-rule:nonzero;stroke:none"
             id="path1860"
             inkscape:connector-curvature="0" />
        </g>
        <g
           id="g1862"
           transform="translate(519.1125,410.1299)">
          <path
             d="m 0,0 c 0.544,-0.774 0.816,-1.589 0.816,-3.261 0,-1.506 -0.152,-6.322 -0.152,-6.755 0,-1.629 1.125,-1.861 1.515,-1.861 0.154,0 1.007,0.312 1.471,0.58 0.117,0.038 0.154,0 0.235,-0.111 0.08,-0.119 0.08,-0.393 0.08,-0.435 0,-0.734 -1.743,-2.441 -3.613,-2.441 -0.933,0 -2.055,0.46 -2.519,1.9 -0.043,0.075 -0.197,0.192 -0.278,0.155 -1.353,-0.93 -2.991,-1.595 -3.418,-1.746 -0.423,-0.155 -1.323,-0.227 -1.582,-0.227 -1.406,0 -2.763,1.664 -2.763,3.642 0,0.698 0.309,1.474 0.736,2.015 0.386,0.508 1.004,0.704 1.554,0.939 0.624,0.274 3.811,1.125 4.661,1.397 0.812,0.272 1.047,0.458 1.047,0.702 0.043,0.349 0.121,2.678 0.084,3.143 0,0.973 -1.06,2.565 -2.958,2.565 -0.739,0 -1.239,-0.201 -1.514,-0.389 -0.195,-0.119 -0.309,-0.739 -0.275,-1.635 0,-0.112 -0.115,-0.308 -0.195,-0.384 -0.377,-0.316 -2.525,-1.359 -2.713,-1.359 -0.235,0 -0.464,0.305 -0.464,0.54 0,1.091 1.048,2.175 2.988,3.456 1.203,0.856 2.949,1.477 3.653,1.477 C -1.589,1.907 -0.581,0.856 0,0 m -2.791,-11.493 c 0.235,0.119 0.427,0.819 0.467,0.933 0.037,0.817 0.077,2.213 0.077,3.109 0,0.119 -0.158,0.315 -0.272,0.315 -1.014,0 -2.874,-0.627 -3.848,-1.17 -0.426,-0.239 -0.735,-0.505 -0.735,-1.475 0,-1.712 1.551,-2.326 2.33,-2.326 0.544,0 1.317,0.23 1.981,0.614"
             style="fill:#2a57af;fill-opacity:1;fill-rule:nonzero;stroke:none"
             id="path1864"
             inkscape:connector-curvature="0" />
        </g>
        <g
           id="g1866"
           transform="translate(533.1307,421.3174)">
          <path
             d="m 0,0 c 1.632,0 2.72,-0.117 4.16,-0.117 1.437,0 3.025,0.077 3.882,0.077 0.735,0 1.161,-0.156 1.161,-0.462 0,-0.311 -0.386,-0.543 -1.121,-0.7 C 6.679,-1.477 5.98,-1.907 5.751,-3.458 5.597,-4.736 5.597,-8.697 5.597,-14.213 c 0,-4.426 0.964,-6.02 2.213,-7.375 1.041,-1.204 3.612,-2.025 5.396,-2.025 2.565,0 6.215,1.051 7.179,5.361 0.463,2.061 0.816,5.321 0.816,9.905 0,2.521 -0.074,4.345 -0.152,4.774 -0.114,1.431 -0.46,1.983 -2.565,2.485 -0.386,0.081 -0.887,0.386 -0.887,0.655 0,0.237 0.266,0.433 0.968,0.433 0.93,0 2.092,-0.117 3.337,-0.117 1.595,0 2.442,0.077 3.53,0.077 0.63,0 0.97,-0.156 0.97,-0.462 0,-0.237 -0.34,-0.468 -0.887,-0.666 -1.712,-0.501 -2.485,-1.162 -2.528,-3.568 -0.034,-1.748 -0.266,-6.104 -0.349,-8.12 -0.229,-6.756 -2.096,-9.976 -4.849,-11.565 -1.786,-1.017 -3.885,-1.21 -5.557,-1.21 -3.492,0 -6.091,1.358 -7.065,2.293 -2.175,2.06 -3.146,4.818 -3.146,11.267 0,5.043 -0.077,8.73 -0.111,9.234 -0.087,0.742 -0.627,1.36 -2.105,1.669 -0.46,0.123 -0.893,0.355 -0.893,0.704 C -1.088,-0.156 -0.621,0 0,0"
             style="fill:#2a57af;fill-opacity:1;fill-rule:nonzero;stroke:none"
             id="path1868"
             inkscape:connector-curvature="0" />
        </g>
        <g
           id="g1870"
           transform="translate(560.6236,410.8716)">
          <path
             d="m 0,0 c 0.702,0.235 2.179,0.777 2.72,1.131 0.426,0.272 0.862,0.461 1.05,0.461 0.152,0 0.35,-0.427 0.35,-0.584 0,-0.578 -0.121,-1.549 -0.121,-1.906 0,-0.191 0.235,-0.109 0.235,-0.109 1.551,1.084 3.495,2.138 5.161,2.138 1.91,0 2.989,-0.856 3.533,-1.482 0.896,-1.006 1.365,-2.794 1.365,-4.742 0,-0.773 0.075,-6.518 0.109,-7.057 0.083,-0.589 0.472,-1.09 1.443,-1.362 0.735,-0.197 0.964,-0.432 0.964,-0.661 0,-0.269 -0.538,-0.473 -1.122,-0.473 -0.933,0 -1.937,0.081 -3.025,0.081 -0.977,0 -2.253,-0.081 -2.754,-0.081 -0.433,0 -0.973,0.122 -0.973,0.473 0,0.272 0.429,0.507 0.93,0.661 0.887,0.345 1.125,0.697 1.205,1.978 0.077,1.28 0.077,5.98 0.077,7.108 0,1.24 -0.627,2.408 -1.05,2.757 C 9.67,-1.32 8.505,-0.93 7.652,-0.93 6.023,-0.93 5.05,-1.471 4.389,-2.054 4.234,-2.173 3.999,-2.676 3.999,-2.992 c -0.037,-0.503 0,-8.855 0.043,-9.314 0.038,-0.543 0.192,-0.861 1.394,-1.206 0.39,-0.114 0.702,-0.389 0.702,-0.624 0,-0.272 -0.427,-0.466 -1.017,-0.466 -0.501,0 -1.663,0.037 -2.482,0.037 -1.437,0 -2.639,-0.115 -3.297,-0.115 -0.584,0 -1.011,0.204 -1.011,0.544 0,0.269 0.38,0.47 0.816,0.581 1.283,0.388 1.477,0.782 1.592,2.176 0.117,1.168 0.235,4.509 0.235,8.431 0,0.426 -0.161,0.816 -0.974,1.514 -0.504,0.385 -0.658,0.536 -0.658,0.661 0,0.269 0.392,0.657 0.658,0.773"
             style="fill:#2a57af;fill-opacity:1;fill-rule:nonzero;stroke:none"
             id="path1872"
             inkscape:connector-curvature="0" />
        </g>
        <g
           id="g1874"
           transform="translate(580.9281,410.8346)">
          <path
             d="m 0,0 c 1.521,0.312 3.458,1.168 4.042,1.326 0.192,0 0.39,-0.356 0.39,-0.433 C 4.395,0.312 4.2,-4.818 4.2,-7.031 c 0,-1.979 0.034,-3.535 0.071,-4.895 0.046,-1.204 0.822,-1.317 1.792,-1.629 0.625,-0.198 0.85,-0.428 0.85,-0.658 0,-0.274 -0.504,-0.43 -0.973,-0.43 -0.263,0 -2.21,0.115 -3.029,0.115 -1.279,0 -2.713,-0.152 -3.409,-0.152 -0.587,0 -1.007,0.193 -1.007,0.467 0,0.23 0.266,0.423 0.924,0.584 0.899,0.272 1.44,0.732 1.554,1.123 0.121,0.543 0.158,2.95 0.158,4.428 0,0.237 0.037,5.043 -0.037,5.513 -0.043,0.272 -0.464,0.627 -1.555,1.397 -0.231,0.198 -0.349,0.352 -0.349,0.463 0,0.279 0.387,0.588 0.81,0.705 m 4.626,7.102 c 0,-1.085 -1.128,-1.975 -1.94,-1.975 -0.272,0 -0.931,0.152 -1.323,0.499 -0.312,0.356 -0.621,0.782 -0.621,1.476 0,0.391 0.154,1.051 0.506,1.443 0.421,0.382 1.042,0.581 1.629,0.581 1.131,0 1.749,-1.284 1.749,-2.024"
             style="fill:#2a57af;fill-opacity:1;fill-rule:nonzero;stroke:none"
             id="path1876"
             inkscape:connector-curvature="0" />
        </g>
        <g
           id="g1878"
           transform="translate(589.0096,411.6906)">
          <path
             d="m 0,0 c 0.658,0 2.951,-0.195 3.381,-0.195 1.014,0 2.018,0.076 2.479,0.076 0.587,0 0.899,-0.156 0.899,-0.425 0,-0.275 -0.352,-0.467 -0.862,-0.626 -1.082,-0.307 -1.008,-0.814 -0.813,-1.318 1.088,-3.223 3.072,-7.686 3.347,-7.962 0.111,-0.116 0.225,-0.036 0.303,0.153 0.506,1.094 2.525,6.372 2.911,7.574 0.312,0.974 -0.031,1.246 -1.202,1.669 -0.347,0.119 -0.659,0.272 -0.659,0.544 0,0.235 0.269,0.427 0.782,0.427 0.693,0 1.199,-0.112 2.133,-0.112 0.698,0 1.897,0.195 2.639,0.195 0.349,0 0.779,-0.195 0.779,-0.433 0,-0.231 -0.238,-0.386 -0.853,-0.621 -0.893,-0.346 -1.332,-0.814 -1.947,-1.592 -0.658,-1.046 -2.018,-4.576 -3.18,-7.299 -1.091,-2.758 -1.134,-3.143 -1.79,-5.163 -0.191,-0.582 -0.621,-1.009 -0.933,-1.009 -0.195,0 -0.43,0.272 -0.541,0.696 -0.389,1.208 -0.547,1.753 -1.434,3.999 -0.933,2.487 -2.954,7.262 -3.965,9.01 -0.318,0.544 -0.698,1.052 -1.672,1.318 -0.581,0.238 -0.776,0.389 -0.776,0.661 C -0.974,-0.195 -0.386,0 0,0"
             style="fill:#2a57af;fill-opacity:1;fill-rule:nonzero;stroke:none"
             id="path1880"
             inkscape:connector-curvature="0" />
        </g>
        <g
           id="g1882"
           transform="translate(617.4358,410.4776)">
          <path
             d="m 0,0 c 0.807,-0.811 1.36,-1.936 1.36,-3.296 0,-0.232 -0.356,-0.736 -0.779,-0.736 -0.426,0 -6.991,0 -8.777,0.035 -0.111,0 -0.306,-0.152 -0.352,-0.304 -0.111,-0.316 -0.155,-0.936 -0.155,-1.361 0,-1.361 0.581,-3.149 1.403,-4.237 0.89,-1.17 2.519,-2.094 4.383,-2.094 1.672,0 2.837,0.424 3.498,1.4 0.155,0.195 0.349,0.464 0.507,0.464 0.222,0 0.343,-0.309 0.343,-0.464 0,-0.315 -0.192,-0.74 -0.312,-0.976 -1.314,-1.938 -3.341,-2.981 -5.776,-2.981 -4.244,0 -6.997,3.217 -6.997,7.722 0,3.106 1.632,6.215 4.697,7.652 1.014,0.463 2.3,0.655 3.029,0.655 C -2.528,1.479 -1.01,0.978 0,0 m -8.159,-2.479 c -0.08,-0.199 0.077,-0.425 0.198,-0.425 1.004,-0.043 2.871,-0.043 4.809,0 0.853,0 1.319,0.226 1.319,1.042 0,1.091 -1.122,2.37 -2.481,2.37 -1.706,0 -3.184,-1.203 -3.845,-2.987"
             style="fill:#2a57af;fill-opacity:1;fill-rule:nonzero;stroke:none"
             id="path1884"
             inkscape:connector-curvature="0" />
        </g>
        <g
           id="g1886"
           transform="translate(621.8984,410.5966)">
          <path
             d="m 0,0 c 1.32,0.47 2.636,1.052 3.106,1.32 0.467,0.312 0.695,0.429 0.81,0.429 0.194,0 0.392,-0.309 0.392,-0.429 0,-0.694 -0.077,-1.396 -0.077,-2.134 0,-0.158 0.195,-0.231 0.229,-0.158 1.48,1.402 3.189,2.412 4.388,2.412 1.635,0 2.024,-1.01 2.024,-1.357 0,-0.12 -0.12,-0.389 -0.235,-0.581 -0.463,-0.661 -1.393,-1.792 -1.662,-1.903 -0.084,-0.044 -0.476,0.04 -0.59,0.111 -0.427,0.392 -1.435,0.896 -2.21,0.896 -0.584,0 -1.168,-0.083 -1.514,-0.463 -0.276,-0.278 -0.39,-0.588 -0.39,-0.86 0,-0.775 0.155,-7.727 0.189,-8.31 0.083,-1.129 0.355,-1.865 1.01,-2.016 0.47,-0.076 1.205,-0.274 1.749,-0.427 0.622,-0.199 0.739,-0.468 0.739,-0.624 0,-0.233 -0.346,-0.388 -0.964,-0.388 -1.017,0 -2.534,0.192 -4.784,0.192 -1.085,0 -1.623,-0.152 -2.559,-0.152 -0.433,0 -0.822,0.152 -0.822,0.504 0,0.238 0.51,0.386 0.782,0.504 1.474,0.513 1.591,0.894 1.631,3.225 v 7.219 c 0,0.465 0,0.975 -0.392,1.247 -0.85,0.661 -1.36,0.969 -1.36,1.12 0,0.082 0.121,0.504 0.51,0.623"
             style="fill:#2a57af;fill-opacity:1;fill-rule:nonzero;stroke:none"
             id="path1888"
             inkscape:connector-curvature="0" />
        </g>
        <g
           id="g1890"
           transform="translate(642.1658,411.805)">
          <path
             d="m 0,0 c 0.427,-0.077 1.168,-0.389 1.242,-0.426 0.118,-0.078 0.313,-0.313 0.356,-0.583 0,-0.666 0.111,-2.057 0.111,-2.335 0,-0.343 -0.195,-0.734 -0.467,-0.734 -0.194,0 -0.466,0.311 -0.661,0.734 -0.853,1.783 -1.86,2.565 -3.143,2.565 -1.434,0 -2.216,-1.435 -2.216,-2.287 0,-1.363 1.28,-2.331 3.736,-3.693 2.402,-1.397 3.177,-2.716 3.177,-4.467 0,-1.823 -1.242,-3.101 -2.293,-3.806 -0.732,-0.504 -2.209,-0.927 -3.368,-0.927 -1.215,0 -3.159,0.309 -3.814,0.853 -0.114,0.198 -0.624,1.826 -0.624,2.994 0,0.498 0.124,0.854 0.315,0.854 0.349,0 0.615,-0.467 0.853,-0.905 1.128,-2.05 2.253,-2.79 3.576,-2.79 0.497,0 1.159,0.23 1.554,0.588 0.581,0.461 0.887,1.316 0.887,2.053 0,0.931 -0.5,1.712 -1.7,2.484 -0.976,0.666 -1.251,0.897 -2.487,1.632 -1.206,0.77 -2.451,2.17 -2.451,3.998 0,1.401 0.708,2.724 2.176,3.615 0.778,0.469 1.857,0.815 3.217,0.815 C -1.279,0.232 -0.464,0.111 0,0"
             style="fill:#2a57af;fill-opacity:1;fill-rule:nonzero;stroke:none"
             id="path1892"
             inkscape:connector-curvature="0" />
        </g>
        <g
           id="g1894"
           transform="translate(648.0686,410.8346)">
          <path
             d="M 0,0 C 1.514,0.312 3.452,1.168 4.039,1.326 4.237,1.326 4.432,0.97 4.432,0.893 4.388,0.312 4.191,-4.818 4.191,-7.031 c 0,-1.979 0.046,-3.535 0.077,-4.895 0.04,-1.204 0.819,-1.317 1.789,-1.629 0.621,-0.198 0.85,-0.428 0.85,-0.658 0,-0.274 -0.497,-0.43 -0.964,-0.43 -0.275,0 -2.219,0.115 -3.032,0.115 -1.279,0 -2.719,-0.152 -3.415,-0.152 -0.587,0 -1.013,0.193 -1.013,0.467 0,0.23 0.275,0.423 0.936,0.584 0.893,0.272 1.431,0.732 1.551,1.123 0.118,0.543 0.155,2.95 0.155,4.428 0,0.237 0.037,5.043 -0.037,5.513 -0.04,0.272 -0.47,0.627 -1.555,1.397 -0.228,0.198 -0.352,0.352 -0.352,0.463 0,0.279 0.389,0.588 0.819,0.705 M 4.62,7.102 C 4.62,6.017 3.492,5.127 2.676,5.127 2.401,5.127 1.743,5.279 1.36,5.626 1.048,5.982 0.742,6.408 0.742,7.102 c 0,0.391 0.148,1.051 0.503,1.443 0.427,0.382 1.042,0.581 1.623,0.581 1.131,0 1.752,-1.284 1.752,-2.024"
             style="fill:#2a57af;fill-opacity:1;fill-rule:nonzero;stroke:none"
             id="path1896"
             inkscape:connector-curvature="0" />
        </g>
        <g
           id="g1898"
           transform="translate(668.4533,411.8792)">
          <path
             d="m 0,0 c 0.151,-0.036 0.272,0.235 0.309,0.396 0.195,1.08 0.08,6.867 -0.037,7.8 -0.04,0.235 -0.04,0.695 -1.786,1.592 -0.35,0.193 -0.427,0.312 -0.427,0.386 0,0.162 0.427,0.584 0.659,0.624 0.933,0.155 3.149,0.739 4.193,1.125 0.195,0.077 0.356,0.114 0.55,0.114 0.071,0 0.306,-0.309 0.266,-0.615 C 3.573,9.478 3.378,7.417 3.378,-3.807 c 0,-7.844 0.083,-7.844 0.117,-8.58 0.078,-1.628 0.387,-1.817 0.618,-1.817 0.433,0 1.679,0.226 2.056,0.263 0.157,0 0.237,-0.192 0.237,-0.233 0,-0.311 -0.5,-0.932 -0.698,-1.006 -0.772,-0.116 -2.871,-0.507 -3.616,-0.771 -0.89,-0.317 -1.276,-0.398 -1.471,-0.398 -0.154,0 -0.429,0.316 -0.429,0.507 0,0.359 0.08,1.008 0.08,1.555 0,0.191 -0.155,0.272 -0.232,0.272 -1.712,-1.468 -3.693,-1.902 -4.966,-1.902 -1.947,0 -3.653,0.811 -4.815,2.061 -1.323,1.386 -1.95,3.416 -1.95,5.354 0,3.849 2.253,6.023 4.159,7.144 1.71,1.086 4,1.482 5.128,1.482 C -1.122,0.124 -0.504,0.077 0,0 M -6.719,-2.479 C -7.532,-3.298 -8.31,-5.36 -8.31,-7.337 c 0,-3.149 2.172,-6.641 5.439,-6.641 1.162,0 1.981,0.352 2.639,0.854 0.074,0.078 0.584,1.284 0.621,2.409 0.037,2.247 0.037,4.738 -0.117,6.481 -0.04,0.312 -0.386,1.054 -0.816,1.514 -1.088,1.085 -2.519,1.521 -3.304,1.521 -1.121,0 -2.172,-0.581 -2.871,-1.28"
             style="fill:#2a57af;fill-opacity:1;fill-rule:nonzero;stroke:none"
             id="path1900"
             inkscape:connector-curvature="0" />
        </g>
        <g
           id="g1902"
           transform="translate(686.8572,410.1299)">
          <path
             d="m 0,0 c 0.544,-0.774 0.819,-1.589 0.819,-3.261 0,-1.506 -0.161,-6.322 -0.161,-6.755 0,-1.629 1.128,-1.861 1.521,-1.861 0.154,0 1.004,0.312 1.474,0.58 0.114,0.038 0.154,0 0.235,-0.111 0.074,-0.119 0.074,-0.393 0.074,-0.435 0,-0.734 -1.749,-2.441 -3.607,-2.441 -0.936,0 -2.064,0.46 -2.528,1.9 -0.034,0.075 -0.194,0.192 -0.269,0.155 -1.362,-0.93 -2.991,-1.595 -3.418,-1.746 -0.429,-0.155 -1.328,-0.227 -1.591,-0.227 -1.394,0 -2.754,1.664 -2.754,3.642 0,0.698 0.303,1.474 0.726,2.015 0.399,0.508 1.017,0.704 1.561,0.939 0.618,0.274 3.808,1.125 4.654,1.397 0.822,0.272 1.057,0.458 1.057,0.702 0.034,0.349 0.112,2.678 0.078,3.143 0,0.973 -1.054,2.565 -2.955,2.565 -0.742,0 -1.249,-0.201 -1.514,-0.389 -0.195,-0.119 -0.312,-0.739 -0.278,-1.635 0,-0.112 -0.112,-0.308 -0.192,-0.384 -0.383,-0.316 -2.522,-1.359 -2.72,-1.359 -0.231,0 -0.463,0.305 -0.463,0.54 0,1.091 1.048,2.175 2.991,3.456 1.203,0.856 2.958,1.477 3.653,1.477 C -1.595,1.907 -0.581,0.856 0,0 m -2.788,-11.493 c 0.226,0.119 0.421,0.819 0.461,0.933 0.043,0.817 0.077,2.213 0.077,3.109 0,0.119 -0.158,0.315 -0.272,0.315 -1.01,0 -2.871,-0.627 -3.844,-1.17 -0.427,-0.239 -0.736,-0.505 -0.736,-1.475 0,-1.712 1.555,-2.326 2.327,-2.326 0.544,0 1.326,0.23 1.987,0.614"
             style="fill:#2a57af;fill-opacity:1;fill-rule:nonzero;stroke:none"
             id="path1904"
             inkscape:connector-curvature="0" />
        </g>
        <g
           id="g1906"
           transform="translate(703.5983,411.8792)">
          <path
             d="m 0,0 c 0.151,-0.036 0.272,0.235 0.306,0.396 0.195,1.08 0.077,6.867 -0.034,7.8 -0.043,0.235 -0.043,0.695 -1.793,1.592 -0.343,0.193 -0.426,0.312 -0.426,0.386 0,0.162 0.426,0.584 0.661,0.624 0.934,0.155 3.146,0.739 4.194,1.125 0.195,0.077 0.346,0.114 0.538,0.114 0.08,0 0.318,-0.309 0.278,-0.615 C 3.573,9.478 3.375,7.417 3.375,-3.807 c 0,-7.844 0.071,-7.844 0.12,-8.58 0.078,-1.628 0.383,-1.817 0.615,-1.817 0.43,0 1.669,0.226 2.062,0.263 0.151,0 0.231,-0.192 0.231,-0.233 0,-0.311 -0.507,-0.932 -0.701,-1.006 -0.776,-0.116 -2.868,-0.507 -3.607,-0.771 -0.896,-0.317 -1.279,-0.398 -1.48,-0.398 -0.148,0 -0.427,0.316 -0.427,0.507 0,0.359 0.084,1.008 0.084,1.555 0,0.191 -0.155,0.272 -0.235,0.272 -1.712,-1.468 -3.69,-1.902 -4.976,-1.902 -1.937,0 -3.646,0.811 -4.812,2.061 -1.319,1.386 -1.94,3.416 -1.94,5.354 0,3.849 2.25,6.023 4.153,7.144 1.712,1.086 4.002,1.482 5.127,1.482 C -1.131,0.124 -0.504,0.077 0,0 m -6.719,-2.479 c -0.819,-0.819 -1.598,-2.881 -1.598,-4.858 0,-3.149 2.179,-6.641 5.44,-6.641 1.162,0 1.984,0.352 2.636,0.854 0.086,0.078 0.587,1.284 0.624,2.409 0.04,2.247 0.04,4.738 -0.111,6.481 -0.043,0.312 -0.393,1.054 -0.819,1.514 -1.088,1.085 -2.525,1.521 -3.298,1.521 -1.128,0 -2.175,-0.581 -2.874,-1.28"
             style="fill:#2a57af;fill-opacity:1;fill-rule:nonzero;stroke:none"
             id="path1908"
             inkscape:connector-curvature="0" />
        </g>
        <g
           id="g1910"
           transform="translate(357.748,330.7898)">
          <path
             d="m 0,0 c 0.26,0.331 1.567,0.983 1.898,0.983 0.259,0 1.177,-0.198 2.033,-0.72 1.567,-1.116 3.14,-1.898 4.123,-1.898 0.785,0 1.31,0.192 1.767,0.782 0.915,1.116 1.181,2.948 1.308,4.259 0.262,3.73 0.201,12.246 0.201,21.675 0,9.373 -0.201,15.922 -0.328,18.675 -0.065,1.244 -0.72,2.612 -3.668,3.338 -1.44,0.323 -2.096,0.912 -2.096,1.439 0,0.456 0.523,0.919 2.028,0.919 2.024,0 4.654,-0.266 7.472,-0.266 3.601,0 5.953,0.2 7.989,0.2 0.98,0 1.83,-0.261 1.83,-0.79 0,-0.522 -0.396,-1.045 -1.959,-1.438 -2.229,-0.527 -3.085,-1.376 -3.147,-4.582 -0.058,-5.371 -0.33,-22.604 -0.46,-28.159 -0.26,-7.865 -3.996,-14.222 -8.255,-17.3 -3.208,-2.29 -6.289,-3.338 -8.057,-3.338 -2.027,0 -4.713,1.112 -4.713,2.948 0,0.717 1.311,2.556 2.034,3.273"
             style="fill:#2a57af;fill-opacity:1;fill-rule:nonzero;stroke:none"
             id="path1912"
             inkscape:connector-curvature="0" />
        </g>
        <g
           id="g1914"
           transform="translate(409.8596,379.6534)">
          <path
             d="m 0,0 c 0.587,-1.569 1.768,-4.915 2.621,-7.34 3.6,-10.151 8.057,-22.006 9.367,-25.278 2.163,-5.307 3.603,-5.964 5.832,-6.619 1.112,-0.327 1.702,-0.717 1.702,-1.177 0,-0.461 -0.655,-0.986 -2.16,-0.986 -1.638,0 -6.552,0.266 -8.585,0.266 -2.164,0 -4.71,-0.13 -6.416,-0.13 -1.31,0 -2.098,0.389 -2.098,0.976 0,0.334 0.457,0.86 1.706,1.119 2.685,0.655 2.747,1.7 2.617,2.748 -0.13,1.706 -1.505,5.368 -3.01,9.565 -0.068,0.262 -0.788,0.984 -1.576,0.984 -6.938,0.063 -10.084,-0.131 -10.999,-0.201 -0.198,0 -0.59,-0.454 -0.726,-0.655 -2.096,-5.237 -2.816,-8.187 -2.816,-9.496 0,-1.316 0.656,-2.225 3.078,-2.883 1.314,-0.321 1.904,-0.714 1.904,-1.307 0,-0.529 -0.918,-0.85 -1.969,-0.85 -1.177,0 -2.815,0.13 -5.235,0.13 -2.562,0 -5.504,-0.266 -6.49,-0.266 -1.502,0 -1.897,0.396 -1.897,0.788 0,0.461 0.265,0.915 1.634,1.307 3.344,0.924 4.068,1.974 5.962,5.834 1.573,3.141 8.644,21.812 11.398,28.299 0.068,0.125 0.327,0.91 0.327,1.171 0,0.198 -0.065,0.396 0.133,0.526 0.915,0.916 2.948,3.337 3.403,4.064 0.398,0.59 0.853,0.85 1.177,0.85 C -0.788,1.439 -0.525,1.304 0,0 m 0.133,-22.211 c -0.983,3.082 -3.863,11.006 -4.781,13.17 -0.133,0.46 -0.519,0.327 -0.726,-0.197 -1.175,-3.146 -4.318,-11.393 -4.71,-12.973 -0.065,-0.326 0.194,-0.651 0.46,-0.651 2.547,0.065 7.396,0.131 9.497,0.131 0.059,0 0.325,0.26 0.26,0.52"
             style="fill:#2a57af;fill-opacity:1;fill-rule:nonzero;stroke:none"
             id="path1916"
             inkscape:connector-curvature="0" />
        </g>
        <g
           id="g1918"
           transform="translate(426.6223,380.3069)">
          <path
             d="m 0,0 c 1.31,0 4.58,-0.331 7.797,-0.331 2.222,0 6.286,0.136 7.791,0.136 0.85,0 1.573,-0.333 1.573,-0.789 0,-0.527 -0.46,-1.05 -1.641,-1.376 -2.945,-0.789 -2.88,-1.701 -2.358,-3.537 0.983,-3.212 7.989,-20.629 9.565,-23.843 0.127,-0.191 0.523,-0.191 0.591,0 0.522,1.05 7.466,17.23 9.426,22.4 1.446,3.872 -0.328,4.127 -2.943,5.118 -0.723,0.256 -1.443,0.711 -1.443,1.109 0,0.459 0.72,0.982 1.768,0.982 2.033,0 3.406,-0.2 5.572,-0.2 1.895,0 4.512,0.266 5.894,0.266 1.118,0 1.965,-0.395 1.965,-0.919 0,-0.589 -0.658,-1.05 -1.771,-1.238 -2.951,-0.726 -4.32,-2.103 -5.964,-5.507 -1.44,-3.217 -5.495,-11.134 -9.429,-20.836 -2.157,-5.163 -3.601,-8.831 -4.914,-12.83 -0.254,-0.727 -1.107,-1.706 -1.765,-1.706 -0.72,0 -1.31,1.115 -1.44,1.573 -0.328,1.446 -1.508,5.241 -3.409,10.022 -2.225,5.96 -7.269,18.01 -9.756,23.975 -1.376,3.075 -2.358,4.512 -5.307,5.365 -0.788,0.2 -1.703,0.466 -1.703,1.182 C -1.901,-0.392 -0.986,0 0,0"
             style="fill:#2a57af;fill-opacity:1;fill-rule:nonzero;stroke:none"
             id="path1920"
             inkscape:connector-curvature="0" />
        </g>
        <g
           id="g1922"
           transform="translate(499.9314,379.9763)">
          <path
             d="M 0,0 C 2.16,0 4.846,0.266 5.764,0.396 6.023,0.46 6.487,0 6.549,-0.461 6.617,-1.635 6.617,-6.153 6.617,-7.46 c 0,-0.921 -0.464,-1.841 -1.048,-1.841 -0.59,0 -1.116,0.981 -1.248,1.638 -0.85,3.668 -2.683,4.653 -4.191,4.915 -1.239,0.192 -4.064,0.455 -9.099,0.39 -0.272,0 -0.794,-0.26 -0.852,-1.828 -0.133,-1.643 -0.331,-10.749 -0.266,-14.346 0,-0.196 0.266,-0.654 0.652,-0.654 h 5.238 c 4.654,0 4.522,0.26 5.773,3.143 0.393,0.983 0.844,1.703 1.434,1.703 0.529,0 0.72,-1.117 0.658,-1.839 -0.129,-1.834 -0.259,-3.007 -0.259,-4.518 0,-1.769 0.13,-2.809 0.259,-4.45 0.062,-1.179 -0.327,-1.969 -0.856,-1.969 -0.516,0 -1.05,0.79 -1.236,1.443 -0.859,2.879 -1.706,3.338 -4.265,3.537 -2.095,0.195 -4.518,0.195 -6.552,0.195 -0.259,0 -0.846,-0.654 -0.846,-0.786 -0.266,-1.833 -0.192,-6.942 -0.13,-9.103 0.065,-1.567 0,-3.998 0.263,-5.372 0.191,-0.59 0.781,-1.437 1.44,-1.57 1.044,-0.201 3.081,-0.395 5.309,-0.395 1.96,0 4.382,0 6.017,0.589 1.966,0.715 3.737,2.296 5.177,4.847 0.918,1.703 1.511,2.296 2.036,2.296 0.65,0 0.582,-1.378 0.52,-1.904 0,-0.528 -1.898,-6.548 -2.488,-7.596 -0.198,-0.457 -1.246,-0.856 -1.57,-0.856 -0.723,0 -16.902,0.334 -21.813,0.334 -4.388,0 -5.108,-0.334 -7.466,-0.334 -1.249,0 -2.232,0.204 -2.232,0.856 0,0.593 0.86,1.048 1.969,1.307 3.341,0.791 4.197,1.444 4.45,4.981 0.195,2.75 0.529,7.73 0.529,15.852 0,7.725 0.062,10.738 -0.065,12.642 -0.133,2.355 -0.658,3.665 -3.474,4.192 -1.381,0.258 -2.095,0.522 -2.095,1.179 0,0.584 1.112,0.981 2.03,0.981 3.075,0 8.45,-0.199 11.859,-0.199 z"
             style="fill:#2a57af;fill-opacity:1;fill-rule:nonzero;stroke:none"
             id="path1924"
             inkscape:connector-curvature="0" />
        </g>
        <g
           id="g1926"
           transform="translate(545.1481,361.3098)">
          <path
             d="m 0,0 c -0.263,-0.195 -1.641,-0.921 -2.559,-1.375 -0.321,-0.129 -0.256,-0.655 -0.127,-0.912 1.243,-2.625 6.614,-11.668 9.89,-15.46 1.771,-2.095 3.674,-2.887 5.631,-3.276 0.655,-0.127 1.18,-0.652 1.18,-0.921 0,-0.389 -0.59,-0.847 -1.044,-0.977 -1.048,-0.395 -3.533,-0.528 -4.389,-0.528 -5.958,0 -8.511,2.364 -9.889,4.253 -1.833,2.497 -5.171,7.868 -7.921,12.581 -0.59,0.99 -1.579,2.421 -2.102,2.747 -0.46,0.399 -1.907,0.855 -3.146,0.855 -0.259,0 -0.649,-0.325 -0.717,-0.655 -0.133,-1.314 0,-10.021 0.192,-13.031 0.194,-2.819 0.658,-3.471 3.671,-4.262 1.116,-0.328 1.57,-0.782 1.57,-1.233 0,-0.727 -1.242,-0.989 -2.03,-0.989 -2.296,0 -5.171,0.392 -8.382,0.392 -2.296,0 -5.566,-0.265 -6.292,-0.265 -1.628,0 -2.095,0.457 -2.095,1.047 0,0.399 0.726,0.788 1.579,1.048 3.01,0.924 3.73,1.706 3.922,3.8 0.399,5.048 0.399,10.546 0.399,16.112 0,7.009 -0.13,12.58 -0.328,14.346 -0.133,1.571 -0.723,2.551 -3.801,3.277 -0.918,0.257 -1.638,0.723 -1.638,1.244 0,0.454 0.788,0.913 1.897,0.913 h 4.781 c 2.423,0 7.865,0.331 11.398,0.331 3.013,0 8.258,-0.26 11.398,-2.883 C 3.081,14.541 4.586,11.394 4.586,8.384 4.586,4.849 2.883,2.299 0,0 m -6.345,14.541 c -1.517,1.57 -3.538,2.29 -5.312,2.29 -0.257,0 -1.966,-0.193 -2.488,-0.458 -0.331,-0.194 -0.723,-1.041 -0.782,-1.37 -0.198,-2.229 -0.464,-13.69 -0.198,-15.396 0.062,-0.392 0.516,-0.781 0.85,-0.781 3.341,0 6.351,0.979 7.071,1.437 1.774,1.316 3.668,3.671 3.668,7.333 0,1.706 -0.59,4.652 -2.809,6.945"
             style="fill:#2a57af;fill-opacity:1;fill-rule:nonzero;stroke:none"
             id="path1928"
             inkscape:connector-curvature="0" />
        </g>
        <g
           id="g1930"
           transform="translate(570.2582,373.0381)">
          <path
             d="m 0,0 c -0.192,3.14 -0.192,4.12 -3.403,4.909 -1.576,0.394 -1.968,0.849 -1.968,1.309 0,0.522 0.921,0.919 2.095,0.919 1.901,0 5.306,-0.199 7.473,-0.199 3.208,0 5.495,0.199 7.791,0.199 1.116,0 2.027,-0.261 2.027,-0.919 0,-0.593 -0.911,-1.116 -2.027,-1.309 C 8.712,4.32 8.517,2.615 8.381,0.915 8.19,-0.725 8.125,-3.016 8.125,-14.278 c 0,-7.927 0.065,-10.744 0.195,-12.713 0.265,-3.863 0.658,-4.649 4.323,-5.63 1.181,-0.257 1.83,-0.717 1.83,-1.376 0,-0.652 -1.24,-0.856 -2.022,-0.856 -2.626,0 -7.08,0.399 -9.83,0.334 -1.901,0 -3.863,-0.198 -6.286,-0.198 -1.57,0 -2.028,0.458 -2.028,1.116 0,0.46 0.588,0.912 1.963,1.239 3.01,0.722 3.467,2.099 3.6,4.916 0.198,2.487 0.325,9.237 0.325,14.797 0,3.347 0,10.152 -0.195,12.649"
             style="fill:#2a57af;fill-opacity:1;fill-rule:nonzero;stroke:none"
             id="path1932"
             inkscape:connector-curvature="0" />
        </g>
        <g
           id="g1934"
           transform="translate(615.7159,379.6534)">
          <path
             d="m 0,0 c 0.59,-1.569 1.765,-4.915 2.621,-7.34 3.6,-10.151 8.053,-22.006 9.364,-25.278 2.157,-5.307 3.6,-5.964 5.825,-6.619 1.113,-0.327 1.71,-0.717 1.71,-1.177 0,-0.461 -0.659,-0.986 -2.164,-0.986 -1.638,0 -6.552,0.266 -8.582,0.266 -2.16,0 -4.716,-0.13 -6.419,-0.13 -1.31,0 -2.092,0.389 -2.092,0.976 0,0.334 0.454,0.86 1.703,1.119 2.679,0.655 2.75,1.7 2.614,2.748 -0.127,1.706 -1.505,5.368 -3.013,9.565 -0.062,0.262 -0.785,0.984 -1.567,0.984 -6.947,0.063 -10.087,-0.131 -11.005,-0.201 -0.195,0 -0.594,-0.454 -0.72,-0.655 -2.093,-5.237 -2.819,-8.187 -2.819,-9.496 0,-1.316 0.662,-2.225 3.078,-2.883 1.314,-0.321 1.901,-0.714 1.901,-1.307 0,-0.529 -0.918,-0.85 -1.962,-0.85 -1.184,0 -2.819,0.13 -5.242,0.13 -2.556,0 -5.507,-0.266 -6.487,-0.266 -1.508,0 -1.897,0.396 -1.897,0.788 0,0.461 0.262,0.915 1.638,1.307 3.34,0.924 4.057,1.974 5.955,5.834 1.576,3.141 8.65,21.812 11.401,28.299 0.065,0.125 0.324,0.91 0.324,1.171 0,0.198 -0.061,0.396 0.133,0.526 0.918,0.916 2.951,3.337 3.406,4.064 0.395,0.59 0.856,0.85 1.183,0.85 C -0.782,1.439 -0.529,1.304 0,0 m 0.127,-22.211 c -0.983,3.082 -3.857,11.006 -4.781,13.17 -0.13,0.46 -0.526,0.327 -0.717,-0.197 -1.178,-3.146 -4.327,-11.393 -4.716,-12.973 -0.065,-0.326 0.194,-0.651 0.457,-0.651 2.553,0.065 7.405,0.131 9.497,0.131 0.065,0 0.328,0.26 0.26,0.52"
             style="fill:#2a57af;fill-opacity:1;fill-rule:nonzero;stroke:none"
             id="path1936"
             inkscape:connector-curvature="0" />
        </g>
        <g
           id="g1938"
           transform="translate(643.5642,380.242)">
          <path
             d="m 0,0 c 1.44,0 6.614,-0.266 9.951,-0.266 0.328,0 1.249,-0.653 1.44,-0.848 0.989,-1.181 2.819,-3.21 5.505,-6.353 3.211,-3.924 16.048,-17.229 19.519,-20.896 0.328,-0.326 0.587,0.26 0.587,0.397 0.325,1.896 0.136,9.296 0.136,14.797 0,2.23 -0.201,5.308 -0.395,7.011 -0.136,1.308 -0.788,2.814 -4.061,3.664 -1.311,0.337 -2.164,0.726 -2.164,1.508 0,0.464 0.72,0.785 1.898,0.785 1.638,0 3.146,-0.065 4.456,-0.065 3.15,0 5.832,0.331 7.529,0.331 1.112,0 1.576,-0.393 1.576,-0.853 0,-0.393 -0.464,-0.98 -1.638,-1.314 -3.403,-1.106 -3.733,-2.29 -4.061,-4.913 -0.195,-2.355 -0.655,-18.923 -0.655,-24.489 0,-2.749 0.399,-8.513 0.399,-10.219 0,-0.593 -0.727,-1.245 -1.051,-1.245 -1.372,0 -2.949,1.702 -3.542,2.487 -1.239,1.637 -2.485,3.15 -4.255,5.307 -6.157,7.533 -16.834,18.801 -22.66,25.674 -0.327,0.392 -0.726,-0.13 -0.726,-0.326 -0.133,-1.769 -0.26,-3.275 -0.325,-8.453 -0.064,-9.103 -0.191,-14.08 0.133,-17.288 0.266,-2.098 0.98,-3.208 4.126,-4.19 1.372,-0.396 1.83,-0.85 1.83,-1.246 0,-0.72 -0.915,-0.986 -2.161,-0.986 -1.897,0 -3.402,0.266 -5.698,0.266 -1.434,0 -5.103,-0.198 -6.218,-0.198 -0.921,0 -1.703,0.328 -1.703,0.856 0,0.656 0.782,0.983 1.437,1.172 3.016,0.924 4.586,1.443 4.778,6.355 0.333,7.337 1.187,19.915 1.187,24.628 0,2.621 -0.198,3.406 -0.399,3.669 -1.178,1.437 -1.629,2.358 -5.041,3.139 -0.726,0.133 -1.703,0.656 -1.703,1.116 C -1.969,-0.463 -1.184,0 0,0"
             style="fill:#2a57af;fill-opacity:1;fill-rule:nonzero;stroke:none"
             id="path1940"
             inkscape:connector-curvature="0" />
        </g>
        <g
           id="g1942"
           transform="translate(717.0464,379.6534)">
          <path
             d="m 0,0 c 0.593,-1.569 1.771,-4.915 2.621,-7.34 3.6,-10.151 8.053,-22.006 9.373,-25.278 2.157,-5.307 3.6,-5.964 5.822,-6.619 1.113,-0.327 1.707,-0.717 1.707,-1.177 0,-0.461 -0.659,-0.986 -2.164,-0.986 -1.641,0 -6.555,0.266 -8.579,0.266 -2.16,0 -4.716,-0.13 -6.422,-0.13 -1.307,0 -2.089,0.389 -2.089,0.976 0,0.334 0.454,0.86 1.697,1.119 2.688,0.655 2.75,1.7 2.62,2.748 -0.133,1.706 -1.508,5.368 -3.01,9.565 -0.068,0.262 -0.791,0.984 -1.576,0.984 -6.941,0.063 -10.087,-0.131 -11.002,-0.201 -0.201,0 -0.59,-0.454 -0.717,-0.655 -2.099,-5.237 -2.822,-8.187 -2.822,-9.496 0,-1.316 0.658,-2.225 3.078,-2.883 1.314,-0.321 1.901,-0.714 1.901,-1.307 0,-0.529 -0.915,-0.85 -1.969,-0.85 -1.171,0 -2.812,0.13 -5.238,0.13 -2.553,0 -5.498,-0.266 -6.481,-0.266 -1.508,0 -1.894,0.396 -1.894,0.788 0,0.461 0.256,0.915 1.632,1.307 3.34,0.924 4.064,1.974 5.961,5.834 1.57,3.141 8.641,21.812 11.392,28.299 0.074,0.125 0.327,0.91 0.327,1.171 0,0.198 -0.061,0.396 0.136,0.526 0.918,0.916 2.942,3.337 3.409,4.064 0.386,0.59 0.847,0.85 1.174,0.85 C -0.785,1.439 -0.526,1.304 0,0 m 0.133,-22.211 c -0.986,3.082 -3.866,11.006 -4.781,13.17 -0.13,0.46 -0.526,0.327 -0.72,-0.197 -1.178,-3.146 -4.327,-11.393 -4.719,-12.973 -0.062,-0.326 0.2,-0.651 0.46,-0.651 2.553,0.065 7.402,0.131 9.497,0.131 0.068,0 0.331,0.26 0.263,0.52"
             style="fill:#2a57af;fill-opacity:1;fill-rule:nonzero;stroke:none"
             id="path1944"
             inkscape:connector-curvature="0" />
        </g>
        <g
           id="g1946"
           transform="translate(497.3269,318.5097)">
          <path
             d="m 0,0 c 0.775,-0.195 1.583,-0.388 2.326,-0.485 0.226,0 0.484,-0.386 0.484,-0.872 0.033,-0.905 0.097,-2.035 0.161,-2.973 0.033,-0.676 -0.193,-1.227 -0.548,-1.227 -0.162,0 -0.453,0.388 -0.614,0.872 -0.323,1.001 -0.808,1.874 -1.357,2.295 -1.389,1.163 -3.036,1.874 -4.781,1.874 -5.136,0 -7.559,-4.07 -7.559,-8.981 0,-2.165 0.387,-4.039 1.098,-5.461 1.777,-3.552 4.716,-4.812 7.236,-4.812 0.42,0 2.003,0.065 3.134,0.742 1.195,0.68 2.067,1.616 2.81,2.939 0.388,0.711 0.614,1.003 0.873,1.003 0.355,0 0.355,-0.839 0.258,-1.194 -0.162,-0.81 -0.678,-2.23 -0.969,-2.813 -0.097,-0.29 -0.678,-0.806 -1.163,-1.032 -0.453,-0.162 -2.682,-0.938 -5.654,-0.938 -4.781,0 -8.173,2.132 -9.497,3.651 -1.228,1.422 -2.714,3.683 -2.714,7.269 0,3.908 2.197,6.654 3.554,7.753 2.746,2.26 6.074,2.906 8.722,2.906 C -2.714,0.516 -1.164,0.29 0,0"
             style="fill:#2a57af;fill-opacity:1;fill-rule:nonzero;stroke:none"
             id="path1948"
             inkscape:connector-curvature="0" />
        </g>
        <g
           id="g1950"
           transform="translate(518.2,304.4574)">
          <path
             d="m 0,0 c 0,-2.746 -1.68,-4.716 -2.875,-5.492 -1.324,-0.936 -2.972,-1.326 -4.458,-1.326 -1.453,0 -3.263,0.68 -4.458,1.682 -1.389,1.131 -2.423,3.164 -2.423,4.975 0,2.26 1.001,3.973 2.229,5.007 0.969,0.84 2.778,1.873 5.169,1.873 C -3.586,6.719 0,4.2 0,0 m -9.013,4.942 c -0.743,-0.677 -1.325,-2.099 -1.325,-4.231 0,-1.066 0.13,-2.293 0.388,-3.102 0.679,-2.26 2.165,-3.36 3.522,-3.36 0.323,0 0.936,0.259 1.421,0.808 0.679,0.873 1.196,2.585 1.196,4.427 0,1.357 -0.292,3.455 -1.293,4.877 -0.581,0.743 -1.421,1.292 -2.325,1.292 -0.55,0 -1.067,-0.226 -1.584,-0.711"
             style="fill:#2a57af;fill-opacity:1;fill-rule:nonzero;stroke:none"
             id="path1952"
             inkscape:connector-curvature="0" />
        </g>
        <g
           id="g1954"
           transform="translate(521.5308,319.4461)">
          <path
             d="M 0,0 C 1.389,0.388 2.94,0.646 4.2,1.454 4.297,1.519 4.588,1.261 4.588,1.131 4.49,-0.031 4.329,-6.524 4.329,-11.37 c 0,-2.522 0.032,-6.785 0.13,-7.754 0.096,-0.743 0.225,-1.131 1.453,-1.486 0.452,-0.161 0.678,-0.323 0.678,-0.55 0,-0.291 -0.516,-0.387 -0.872,-0.387 -0.775,0 -2.617,0.13 -3.198,0.13 -0.743,0 -2.326,-0.13 -3.004,-0.13 -0.711,0 -0.937,0.226 -0.937,0.387 0,0.355 0.42,0.485 0.775,0.55 1.066,0.29 1.26,0.775 1.357,2.455 0.097,1.422 0.194,5.073 0.194,10.175 0,1.682 -0.033,4.718 -0.033,5.654 0,0.388 -0.193,0.583 -0.872,1.099 -0.42,0.356 -0.581,0.516 -0.581,0.679 0,0.162 0.226,0.418 0.581,0.548"
             style="fill:#2a57af;fill-opacity:1;fill-rule:nonzero;stroke:none"
             id="path1956"
             inkscape:connector-curvature="0" />
        </g>
        <g
           id="g1958"
           transform="translate(544.3083,304.4574)">
          <path
             d="m 0,0 c 0,-2.746 -1.68,-4.716 -2.876,-5.492 -1.324,-0.936 -2.972,-1.326 -4.458,-1.326 -1.454,0 -3.262,0.68 -4.458,1.682 -1.389,1.131 -2.423,3.164 -2.423,4.975 0,2.26 1.002,3.973 2.229,5.007 0.969,0.84 2.779,1.873 5.169,1.873 C -3.586,6.719 0,4.2 0,0 m -9.013,4.942 c -0.744,-0.677 -1.325,-2.099 -1.325,-4.231 0,-1.066 0.129,-2.293 0.387,-3.102 0.679,-2.26 2.165,-3.36 3.522,-3.36 0.323,0 0.936,0.259 1.422,0.808 0.678,0.873 1.195,2.585 1.195,4.427 0,1.357 -0.291,3.455 -1.293,4.877 -0.582,0.743 -1.421,1.292 -2.325,1.292 -0.55,0 -1.066,-0.226 -1.583,-0.711"
             style="fill:#2a57af;fill-opacity:1;fill-rule:nonzero;stroke:none"
             id="path1960"
             inkscape:connector-curvature="0" />
        </g>
        <g
           id="g1962"
           transform="translate(547.8329,309.8195)">
          <path
             d="M 0,0 C 0.807,0.26 2.714,1.066 3.488,1.486 3.65,1.551 3.715,1.519 3.78,1.486 3.941,1.391 4.07,1.131 4.07,1.066 4.07,0.615 3.974,0 3.974,-0.323 c 0,-0.063 0.129,-0.29 0.225,-0.193 1.26,1.034 2.779,1.873 4.362,1.873 1.001,0 1.841,-0.258 2.358,-0.646 0.549,-0.42 0.904,-1.034 1.066,-1.292 0.065,-0.096 0.226,-0.096 0.259,-0.096 0.387,0.257 1.712,1.065 2.358,1.388 0.743,0.388 1.324,0.485 1.873,0.485 1.325,0 2.133,-0.485 2.779,-1.164 0.872,-0.839 1.163,-2.002 1.227,-3.231 0.065,-1.066 0.129,-4.425 0.162,-6.493 0.032,-0.548 0.29,-1.032 1.13,-1.292 0.42,-0.129 0.647,-0.322 0.647,-0.516 0,-0.225 -0.324,-0.42 -0.905,-0.42 -0.647,0 -1.712,0.13 -2.584,0.13 -1.099,0 -1.906,-0.098 -2.65,-0.098 -0.613,0 -0.807,0.259 -0.807,0.484 0,0.195 0.291,0.355 0.646,0.485 0.84,0.258 0.969,0.55 1.034,1.808 0.032,0.841 -0.033,4.427 -0.033,5.494 0,0.517 -0.064,1.129 -0.452,1.744 -0.388,0.614 -1.066,1.097 -2.067,1.097 -1.131,0 -1.648,-0.386 -1.971,-0.646 -0.162,-0.128 -0.258,-0.677 -0.258,-1.001 0,-0.226 -0.033,-6.17 0.032,-6.879 0.097,-1.036 0.226,-1.326 1.357,-1.649 0.355,-0.098 0.678,-0.258 0.678,-0.484 0,-0.227 -0.323,-0.453 -0.84,-0.453 -0.71,0 -2.164,0.098 -2.907,0.098 -0.678,0 -1.971,-0.065 -2.649,-0.065 -0.808,0 -0.937,0.226 -0.937,0.485 0,0.096 0.226,0.321 0.646,0.451 0.873,0.258 1.163,0.581 1.163,1.745 l 0.033,5.557 c 0.032,1.291 -0.227,1.84 -0.388,2.035 -0.421,0.581 -1.163,1.033 -2.1,1.033 -0.744,0 -1.518,-0.323 -1.971,-0.678 C 4.328,-1.357 4.199,-1.712 4.199,-1.97 4.167,-4.07 4.167,-7.009 4.167,-9.466 c 0,-0.677 0.259,-1.097 1.131,-1.388 0.613,-0.195 0.775,-0.324 0.775,-0.581 0,-0.194 -0.42,-0.42 -0.872,-0.42 -0.13,0 -1.938,0.065 -3.166,0.065 -1.066,0 -2.035,-0.13 -2.713,-0.13 -0.453,0 -0.905,0.13 -0.905,0.42 0,0.194 0.226,0.387 0.807,0.549 1.131,0.258 1.228,0.678 1.357,2.067 0.065,0.874 0.162,3.392 0.162,6.235 0,0.291 0,0.55 -0.194,0.711 -0.775,0.776 -1.163,1.162 -1.163,1.357 0,0.195 0.388,0.516 0.614,0.581"
             style="fill:#2a57af;fill-opacity:1;fill-rule:nonzero;stroke:none"
             id="path1964"
             inkscape:connector-curvature="0" />
        </g>
        <g
           id="g1966"
           transform="translate(583.8903,299.0613)">
          <path
             d="m 0,0 c -1.389,-1.032 -3.522,-1.422 -4.749,-1.422 -1.196,0 -3.263,0.356 -4.329,0.68 -0.129,0.065 -0.355,0.031 -0.678,-0.129 -0.162,-0.065 -0.355,-0.13 -0.42,-0.13 -0.129,0 -0.355,0.195 -0.355,0.42 0.161,2.52 0.193,8.14 0.193,10.79 0,3.069 -0.032,7.172 -0.097,7.657 -0.032,0.193 -0.161,0.549 -0.678,1.002 -0.614,0.451 -0.937,0.58 -0.937,0.741 0,0.227 0.356,0.55 0.55,0.615 1.097,0.291 2.422,0.549 3.488,1.097 0.614,0.325 0.905,0.421 1.066,0.421 0.098,0 0.356,-0.322 0.356,-0.517 -0.097,-2.293 -0.291,-4.941 -0.291,-7.463 0,-0.742 0,-1.743 0.033,-2.454 0,-0.162 0.128,-0.162 0.128,-0.162 1.034,0.647 2.52,0.969 3.425,0.969 1.647,0 3.101,-0.516 4.135,-1.422 C 2.261,9.466 3.036,7.786 3.036,5.654 3.036,3.038 1.518,1.131 0,0 m -2.229,9.078 c -0.582,0.711 -1.777,1.39 -3.069,1.39 -0.549,0 -0.969,-0.13 -1.26,-0.259 C -6.654,10.145 -6.784,9.951 -6.817,9.854 -6.848,9.37 -6.881,8.723 -6.881,8.045 c 0,-2.454 0.129,-4.491 0.291,-5.622 0.032,-0.355 0.258,-1.259 0.904,-1.84 0.646,-0.679 1.486,-0.874 1.97,-0.874 0.292,0 0.905,0.291 1.584,0.971 0.808,0.967 1.292,2.778 1.292,4.328 0,1.292 -0.484,3.006 -1.389,4.07"
             style="fill:#2a57af;fill-opacity:1;fill-rule:nonzero;stroke:none"
             id="path1968"
             inkscape:connector-curvature="0" />
        </g>
        <g
           id="g1970"
           transform="translate(590.8383,310.079)">
          <path
             d="M 0,0 C 1.324,0.258 3.36,1.032 3.877,1.162 4.039,1.162 4.2,0.904 4.2,0.807 4.135,-0.291 4.039,-4.62 4.039,-6.493 c 0,-1.001 0.031,-2.132 0.064,-3.264 0.032,-0.97 0.42,-1.098 1.26,-1.356 0.484,-0.161 0.711,-0.356 0.711,-0.615 0,-0.257 -0.453,-0.419 -0.905,-0.419 -0.226,0 -1.97,0.097 -2.681,0.097 -1.034,0 -2.584,-0.129 -3.134,-0.129 -0.517,0 -0.904,0.194 -0.904,0.42 0,0.225 0.226,0.386 0.839,0.581 0.776,0.225 1.131,0.613 1.196,0.936 0.129,0.453 0.194,2.748 0.194,5.041 0,0.676 0,2.518 -0.065,2.906 -0.032,0.258 -0.42,0.583 -1.098,1.164 -0.194,0.195 -0.388,0.355 -0.388,0.516 0,0.26 0.355,0.518 0.872,0.615 M 4.264,5.847 C 4.264,4.781 3.134,3.875 2.327,3.875 2.035,3.875 1.389,4.07 1.034,4.426 0.711,4.747 0.42,5.201 0.42,5.847 c 0,0.386 0.162,1.032 0.517,1.422 0.387,0.355 1.002,0.581 1.615,0.581 1.131,0 1.712,-1.261 1.712,-2.003"
             style="fill:#2a57af;fill-opacity:1;fill-rule:nonzero;stroke:none"
             id="path1972"
             inkscape:connector-curvature="0" />
        </g>
        <g
           id="g1974"
           transform="translate(608.4465,309.433)">
          <path
             d="m 0,0 c 0.387,-0.518 0.711,-1.326 0.711,-2.778 0,-1.261 -0.13,-5.106 -0.13,-5.461 0,-0.904 0.646,-1.292 1.195,-1.292 0.162,0 0.808,0.26 1.131,0.388 0.097,0.063 0.129,0.032 0.194,-0.033 0.064,-0.129 0.097,-0.355 0.097,-0.451 0,-0.615 -1.518,-2.197 -3.328,-2.197 -0.936,0 -1.938,0.29 -2.423,1.55 -0.031,0.13 -0.225,0.193 -0.29,0.13 -0.808,-0.583 -2.133,-1.164 -2.552,-1.357 -0.356,-0.13 -1.002,-0.258 -1.422,-0.258 -1.195,0 -2.487,1.452 -2.487,3.262 0,0.582 0.258,1.194 0.581,1.649 0.323,0.451 0.872,0.645 1.164,0.774 0.71,0.29 3.65,1.098 4.393,1.324 0.388,0.13 0.582,0.355 0.582,0.485 0.031,0.291 0.096,2.068 0.064,2.488 -0.033,0.776 -0.711,2.068 -2.165,2.068 -0.452,0 -0.807,-0.065 -1.033,-0.228 C -5.847,0 -5.912,-0.325 -5.912,-1.422 c 0,-0.129 -0.065,-0.227 -0.129,-0.29 -0.227,-0.227 -2.649,-1.293 -2.843,-1.293 -0.194,0 -0.42,0.258 -0.42,0.452 0,0.937 0.711,1.808 2.713,3.102 1.196,0.774 2.779,1.194 3.231,1.194 C -1.389,1.743 -0.485,0.711 0,0 m -3.037,-9.434 c 0.161,0.098 0.291,0.484 0.291,0.614 0.064,0.451 0.129,1.808 0.129,2.874 0,0.13 -0.129,0.324 -0.226,0.324 -0.55,0 -2.035,-0.485 -2.617,-0.84 -0.387,-0.291 -0.581,-0.451 -0.581,-1.292 0,-1.422 1.163,-2.068 1.776,-2.068 0.291,0 0.937,0.195 1.228,0.388"
             style="fill:#2a57af;fill-opacity:1;fill-rule:nonzero;stroke:none"
             id="path1976"
             inkscape:connector-curvature="0" />
        </g>
      </g>
    </g>
  </g>
</svg>
